{"title":"TNA.iMPACT.2010.07.01.HDTV.XviD-KYR","uid":5664346,"size":778715183,"categoryP":"video","categoryS":"tv_shows","magnet":"?xt=urn:btih:15a17c9f997ed6f913ebce15d68c8cd4b8efbe0e&amp;dn=TNA.iMPACT.2010.07.01.HDTV.XviD-KYR&amp;tr=udp%3A%2F%2Ftracker.openbittorrent.com%3A80&amp;tr=udp%3A%2F%2Fopen.demonii.com%3A1337&amp;tr=udp%3A%2F%2Ftracker.coppersurfer.tk%3A6969&amp;tr=udp%3A%2F%2Fexodus.desync.com%3A6969","seeders":0,"leechers":1,"uploader":"ken.burns","files":2,"time":1278084062,"description":"General\nComplete name : TNA.iMPACT.2010.07.01.HDTV.XviD-KYR\nFormat : AVI\nFormat/Info : Audio Video Interleave\nFile size : 743 MiB\nDuration : 1h 23mn\nOverall bit rate : 1 237 Kbps\nWriting application : Nandub v1.0rc2\nWriting library : Nandub build 1853/release\n\nVideo\nFormat : MPEG-4 Visual\nFormat profile : AdvancedSimple@L5\nFormat settings, BVOP : Yes\nFormat settings, QPel : No\nFormat settings, GMC : No warppoints\nFormat settings, Matrix : Default (H.263)\nCodec ID : XVID\nCodec ID/Hint : XviD\nDuration : 1h 23mn\nBit rate : 1 096 Kbps\nWidth : 624 pixels\nHeight : 352 pixels\nDisplay aspect ratio : 16:9\nFrame rate : 29.970 fps\nResolution : 24 bits\nColorimetry : 4:2:0\nScan type : Progressive\nBits/(Pixel*Frame) : 0.166\nStream size : 658 MiB (89%)\nWriting library : XviD 1.3.0.dev55\n\nAudio\nFormat : MPEG Audio\nFormat version : Version 1\nFormat profile : Layer 3\nFormat_Settings_Mode : Joint stereo / MS Stereo\nCodec ID : 55\nCodec ID/Hint : MP3\nDuration : 1h 23mn\nBit rate mode : Variable\nBit rate : 127 Kbps\nNominal bit rate : 128 Kbps\nChannel(s) : 2 channels\nSampling rate : 48.0 KHz\nResolution : 16 bits\nStream size : 76.2 MiB (10%)\nAlignment : Aligned on interleaves\nInterleave, duration : 24 ms (0.72 video frame)\nInterleave, preload duration : 499 ms\nWriting library : LAME3.92 \nEncoding settings : -m j -V 4 -q 2 -lowpass 17.5 --abr 128\n","torrent":{"xt":"urn:btih:15a17c9f997ed6f913ebce15d68c8cd4b8efbe0e","amp;dn":"TNA.iMPACT.2010.07.01.HDTV.XviD-KYR","amp;tr":["udp%3A%2F%2Ftracker.openbittorrent.com%3A80","udp%3A%2F%2Fopen.demonii.com%3A1337","udp%3A%2F%2Ftracker.coppersurfer.tk%3A6969","udp%3A%2F%2Fexodus.desync.com%3A6969"],"infoHash":"15a17c9f997ed6f913ebce15d68c8cd4b8efbe0e","infoHashBuffer":{"type":"Buffer","data":[21,161,124,159,153,126,214,249,19,235,206,21,214,140,140,212,184,239,190,14]},"announce":[],"urlList":[]}}